<?xml version="1.0" encoding="UTF-8"?>
<!DOCTYPE svg PUBLIC "-//W3C//DTD SVG 1.1//EN" "http://www.w3.org/Graphics/SVG/1.1/DTD/svg11.dtd">
<!-- Creator: CorelDRAW 2021 (64-Bit) -->
<svg xmlns="http://www.w3.org/2000/svg" xml:space="preserve" width="8.4666mm" height="8.4666mm" version="1.1" style="shape-rendering:geometricPrecision; text-rendering:geometricPrecision; image-rendering:optimizeQuality; fill-rule:evenodd; clip-rule:evenodd"
viewBox="0 0 846.66 846.66"
 xmlns:xlink="http://www.w3.org/1999/xlink"
 xmlns:xodm="http://www.corel.com/coreldraw/odm/2003">
 <defs>
  <style type="text/css">
   <![CDATA[
    .fil0 {fill:#0A182E}
    .fil1 {fill:#61FFD6;fill-rule:nonzero}
   ]]>
  </style>
 </defs>
 <g id="Layer_x0020_1">
  <metadata id="CorelCorpID_0Corel-Layer"/>
  <g id="_2148373572576">
   <polygon class="fil0" points="771.6,624.4 597.46,724.94 423.33,825.49 249.19,724.95 75.05,624.41 75.06,423.33 75.06,222.26 249.2,121.72 423.33,21.17 597.47,121.71 771.61,222.25 771.6,423.33 "/>
   <path class="fil1" d="M426.25 419.43c14.82,0 26.19,-3.51 34.11,-10.52 7.93,-7.02 11.89,-16.38 11.89,-28.07l0 -0.78c0,-13 -4.16,-22.74 -12.47,-29.24 -8.32,-6.5 -19.88,-9.74 -34.7,-9.74l-59.64 0 0 78.35 60.81 0zm-120.84 -132.54l124.74 0c34.57,0 61.07,9.22 79.53,27.68 15.59,15.59 23.39,36.38 23.39,62.37l0 0.78c0,22.09 -5.4,40.09 -16.18,53.99 -10.79,13.9 -24.89,24.11 -42.3,30.6l66.66 97.46 -70.17 0 -58.47 -87.32 -0.78 0 -46.39 0 0 87.32 -60.03 0 0 -272.88z"/>
  </g>
 </g>
</svg>
